# xmcd
#
# Track frame offsets: 
#        150
#        16402
#        25040
#        39901
#        55404
#        71477
#        86059
#        109723
#        120757
#        130410
#        143225
#        170063
#        185465
#        218497
#
# Disc length: 3207 seconds
#
# Revision: 1
# Processed by: cddbd v1.5.1PL0 Copyright (c) Steve Scherf et al.
# Submitted via: ExactAudioCopy v0.95a5
#
DISCID=ba0c850e
DTITLE=B.B. King - The Album - CD 1
DYEAR=1900
DGENRE=
TTITLE0=The Other Night Blues
TTITLE1=A New Way Of Driving
TTITLE2=B.B. Boogie
TTITLE3=Walkin' and Cryin'
TTITLE4=It's My Own Fault
TTITLE5=Mr. Pawnbroker
TTITLE6=You've Done Lost Good Thing Now
TTITLE7=Catfish Blues
TTITLE8=Swing Low Sweet Chariot/Rock Me Lord
TTITLE9=I'm Working On The Building
TTITLE10=Sweet Little Angel
TTITLE11=How Blue Can You Get
TTITLE12=The Letter
TTITLE13=Everyday I Have A Blues
EXTD=
EXTT0=
EXTT1=
EXTT2=
EXTT3=
EXTT4=
EXTT5=
EXTT6=
EXTT7=
EXTT8=
EXTT9=
EXTT10=
EXTT11=
EXTT12=
EXTT13=
PLAYORDER=
